<?xml version="1.0" encoding="utf-8"?>
<!-- Generator: Adobe Illustrator 21.1.0, SVG Export Plug-In . SVG Version: 6.00 Build 0)  -->
<svg version="1.1" id="Layer_1" xmlns="http://www.w3.org/2000/svg" xmlns:xlink="http://www.w3.org/1999/xlink" x="0px" y="0px"
	 viewBox="0 0 75 75" style="enable-background:new 0 0 75 75;" xml:space="preserve">
<style type="text/css">
	.st0{fill-rule:evenodd;clip-rule:evenodd;fill:#1D1E1D;}
	.st1{fill-rule:evenodd;clip-rule:evenodd;fill:url(#SVGID_1_);}
	.st2{fill:#0A0B0B;}
	.st3{fill:#2A2B2A;}
	.st4{opacity:0.5;fill:#F1F2F2;}
	.st5{fill:#653E95;}
	.st6{fill:#0A0B0B;stroke:#FFFFFF;stroke-width:0.5;stroke-miterlimit:10;}
	.st7{fill:#E6E7E8;}
	.st8{fill-rule:evenodd;clip-rule:evenodd;fill:#653E95;}
	.st9{fill:none;stroke:#FFFFFF;stroke-miterlimit:10;}
	.st10{fill:#FFFFFF;}
	.st11{fill-rule:evenodd;clip-rule:evenodd;}
	.st12{fill:none;stroke:#FFFFFF;stroke-width:0.25;stroke-miterlimit:10;}
	.st13{fill:none;stroke:#FFFFFF;stroke-width:0.75;stroke-miterlimit:10;}
	.st14{fill-rule:evenodd;clip-rule:evenodd;fill:#FFFFFF;}
	.st15{fill-rule:evenodd;clip-rule:evenodd;fill:#FFDE11;}
	.st16{fill:#1C1D1D;}
	.st17{fill:#653F96;}
	.st18{fill-rule:evenodd;clip-rule:evenodd;fill:#3D3E3D;}
	.st19{opacity:0.5;fill-rule:evenodd;clip-rule:evenodd;fill:#F1F2F2;}
	.st20{fill:none;stroke:#653E95;stroke-width:2;stroke-miterlimit:10;}
	.st21{clip-path:url(#XMLID_177_);fill-rule:evenodd;clip-rule:evenodd;fill:url(#SVGID_2_);}
	.st22{fill:none;stroke:#FFFFFF;stroke-width:1.5;stroke-miterlimit:10;}
	.st23{fill-rule:evenodd;clip-rule:evenodd;fill:none;stroke:#FFFFFF;stroke-miterlimit:10;}
	.st24{opacity:0.5;fill-rule:evenodd;clip-rule:evenodd;fill:#FFFFFF;}
	.st25{fill-rule:evenodd;clip-rule:evenodd;fill:#1D1E1D;stroke:#FFFFFF;stroke-width:3;stroke-miterlimit:10;}
</style>
<g>
	<path class="st10" d="M69.9,5.1c-2.6-2.6-11.4-2.7-13.2-2.7c-7.2,0-25.5,1.5-39.2,15.2C7.4,27.8,3.9,40.4,2.8,49.3
		C1.7,58.5,2.6,67.6,5,70c2.5,2.5,11.3,2.7,13,2.7c7.3,0,25.6-1.5,39.3-15.2C76,38.8,74,9.3,69.9,5.1z M53.6,53.6
		C41.3,65.9,24.7,67.2,18.1,67.2c-2.5,0-4.5-0.2-6-0.4c0,0-2.5-0.3-2.9-0.7c-0.5-0.6-0.8-1.9-0.8-1.9c-1.5-7.2-1.1-28.6,13-42.8
		C33.7,9.1,50.2,7.8,56.7,7.8c3.3,0,5.8,0.3,7.4,0.6c0,0,1.5,0.3,2.1,0.9c0.4,0.4,0.7,2.7,0.7,2.7C68.1,20.2,67.1,40.1,53.6,53.6z"
		/>
	<path class="st10" d="M50.1,33.5l-2.6-2.6l1-1c0.7-0.7,0.7-1.9,0-2.6c-0.7-0.7-1.9-0.7-2.6,0l-1,1l-2.6-2.6c-0.9-0.9-2.3-0.9-3.2,0
		c-0.9,0.9-0.9,2.3,0,3.2l2.6,2.6L38,35l-2.6-2.6c-0.9-0.9-2.3-0.9-3.2,0c-0.9,0.9-0.9,2.3,0,3.2l2.6,2.6l-3.7,3.7l-2.6-2.6
		c-0.9-0.9-2.3-0.9-3.2,0c-0.9,0.9-0.9,2.3,0,3.2L28,45l-1,1c-0.7,0.7-0.7,1.9,0,2.6c0.4,0.4,0.8,0.5,1.3,0.5c0.5,0,1-0.2,1.3-0.5
		l1-1l2.6,2.6c0.4,0.4,1,0.7,1.6,0.7c0.6,0,1.1-0.2,1.6-0.7c0.9-0.9,0.9-2.3,0-3.2l-2.6-2.6l3.7-3.7l2.6,2.6c0.4,0.4,1,0.7,1.6,0.7
		c0.6,0,1.1-0.2,1.6-0.7c0.9-0.9,0.9-2.3,0-3.2l-2.6-2.6l3.6-3.6l2.6,2.6c0.4,0.4,1,0.7,1.6,0.7c0.6,0,1.1-0.2,1.6-0.7
		C51,35.8,51,34.4,50.1,33.5z"/>
	
		<rect x="41.3" y="13.5" transform="matrix(0.7071 0.7071 -0.7071 0.7071 29.2505 -35.5746)" class="st10" width="32.4" height="8.1"/>
	<rect x="1.7" y="53.1" transform="matrix(0.7071 0.7071 -0.7071 0.7071 45.6692 4.0637)" class="st10" width="32.4" height="8.1"/>
</g>
</svg>
